<svg width="33" height="33" fill="none" xmlns="http://www.w3.org/2000/svg"><path fill-rule="evenodd" clip-rule="evenodd" d="M19.36.668c.188 0 .358.077.479.202l8.146 8.146a.665.665 0 01.203.479v17.95a3.932 3.932 0 01-3.932 3.932H7.937a3.932 3.932 0 01-3.931-3.931V4.599A3.931 3.931 0 017.937.668H19.36zM7.937 2.003h10.756v5.86a2.3 2.3 0 002.3 2.3h5.86v17.283a2.596 2.596 0 01-2.597 2.596H7.937a2.596 2.596 0 01-2.596-2.596V4.599a2.596 2.596 0 012.596-2.596zm13.055 6.824h4.916l-5.88-5.88v4.916a.964.964 0 00.964.964zM8.68 13.352a.668.668 0 000 1.335h14.687a.668.668 0 000-1.335H8.679zm0 4.673a.668.668 0 000 1.335h6.676a.668.668 0 000-1.335H8.679zm-.668 5.34c0-.368.3-.667.668-.667h8.679a.668.668 0 010 1.335h-8.68a.668.668 0 01-.667-.667z" fill="#1D1D1D"/></svg>